<?xml version="1.0" encoding="UTF-8" standalone="no"?>
<svg xmlns="http://www.w3.org/2000/svg" width="48" height="48">
  <defs>
    <linearGradient id="a" x1="44.246" x2="4.295" y1="47.834" y2="-.121" gradientUnits="userSpaceOnUse">
      <stop offset="0" stop-color="#2a2c2f"/>
      <stop offset="1" stop-color="#536161"/>
    </linearGradient>
    <linearGradient id="b" x1="36" x2="14" y1="44" y2="12" gradientUnits="userSpaceOnUse">
      <stop offset="0" stop-color="#bfc9c9"/>
      <stop offset="1" stop-color="#fbfbfb"/>
    </linearGradient>
    <linearGradient id="c" x1="21.931" x2="35.404" y1="27.214" y2="40.025" gradientUnits="userSpaceOnUse">
      <stop offset="0" stop-color="#292c2f"/>
      <stop offset="1" stop-opacity="0"/>
    </linearGradient>
  </defs>
  <rect width="40" height="40" x="4" y="4" fill="url(#a)" rx="1"/>
  <path d="M4 42v1c0 .554007.4459958 1 1 1h38c.554004 0 1-.445993 1-1v-1c0 .554007-.445996 1-1 1H5c-.5540042 0-1-.445993-1-1z" opacity=".3"/>
  <path fill="url(#b)" d="M20.414 14 19 15.414 27.586 24 19 32.586 20.414 34l10-10L29 22.586z"/>
  <path fill="url(#c)" fill-rule="evenodd" d="m20.42 34 9.586 9.586h14v-6L30.42 24z" opacity=".4"/>
  <path fill="#fff" d="M4 6V5c0-.554007.445996-1 1-1h38c.554004 0 1 .445993 1 1v1c0-.554007-.445996-1-1-1H5c-.554004 0-1 .445993-1 1z" opacity=".3"/>
</svg>